<?xml version="1.0" standalone="no"?>
<!DOCTYPE svg PUBLIC "-//W3C//DTD SVG 20010904//EN"
 "http://www.w3.org/TR/2001/REC-SVG-20010904/DTD/svg10.dtd">
<svg version="1.0" xmlns="http://www.w3.org/2000/svg"
 width="1784.000000pt" height="1953.000000pt" viewBox="0 0 1784.000000 1953.000000"
 preserveAspectRatio="xMidYMid meet">

<g transform="translate(0.000000,1953.000000) scale(0.100000,-0.100000)"
fill="#000000" stroke="none">
<path d="M8968 16383 l-105 -278 35 -3 c41 -4 44 0 72 84 31 91 30 91 141 86
l96 -4 26 -88 27 -88 40 -4 c25 -2 39 0 37 7 -2 5 -42 135 -88 288 l-84 277
-46 0 -46 0 -105 -277z m187 72 c14 -49 29 -98 31 -107 5 -16 -4 -18 -81 -18
-48 0 -85 3 -83 8 2 4 23 63 47 131 37 102 46 120 52 100 4 -13 19 -64 34
-114z"/>
<path d="M9726 16362 c-20 -147 -36 -274 -36 -283 0 -18 51 -33 60 -18 3 5 16
89 29 186 13 98 26 200 30 227 l6 50 38 -95 c21 -52 70 -166 110 -254 l72
-160 38 -6 c20 -3 37 -5 37 -3 0 10 71 523 75 540 4 18 -1 23 -27 28 -17 3
-33 4 -35 2 -7 -6 -53 -359 -53 -403 0 -24 -3 -43 -8 -43 -4 0 -18 28 -31 63
-31 79 -180 410 -189 418 -4 4 -23 9 -43 12 l-36 5 -37 -266z"/>
<path d="M7789 16587 c-59 -31 -91 -86 -86 -146 8 -77 62 -122 191 -156 105
-29 138 -99 77 -167 -24 -27 -36 -32 -89 -36 -34 -2 -74 0 -90 6 -28 10 -30 9
-36 -20 -3 -17 -3 -34 0 -37 3 -3 41 -8 84 -9 68 -4 87 0 134 21 70 32 96 71
96 146 0 93 -46 139 -174 170 -71 17 -102 36 -116 71 -29 71 34 126 138 118
57 -4 61 -3 67 19 3 13 3 28 0 33 -4 6 -39 10 -79 10 -57 0 -82 -5 -117 -23z"/>
<path d="M7168 16457 l-36 -10 -7 -84 c-4 -47 -10 -160 -14 -251 l-6 -167 -34
55 c-24 39 -193 277 -247 349 -7 9 -89 -28 -87 -40 7 -50 117 -526 123 -532 4
-4 19 -5 34 -1 26 6 27 9 21 43 -6 35 -90 387 -101 426 -3 11 29 -32 73 -95
43 -63 109 -158 147 -211 63 -89 71 -96 95 -90 l26 7 11 185 c7 101 13 220 14
264 1 44 5 71 7 60 9 -35 155 -440 162 -446 3 -4 20 -1 37 5 l31 11 -83 225
c-46 124 -91 244 -100 268 -9 23 -19 41 -22 41 -4 -1 -24 -6 -44 -12z"/>
<path d="M10626 16417 c-43 -153 -126 -468 -126 -481 0 -40 263 -83 343 -57
68 23 113 65 152 145 33 65 37 84 38 148 1 145 -83 232 -264 272 -137 30 -126
32 -143 -27z m164 -38 c62 -15 129 -65 150 -112 37 -80 16 -192 -48 -267 -61
-72 -123 -89 -231 -65 -39 9 -73 20 -76 24 -3 6 92 379 110 429 5 12 13 12 95
-9z"/>
<path d="M6151 16079 c-69 -32 -126 -61 -129 -63 -4 -5 224 -496 236 -508 4
-3 71 23 149 59 l141 66 -10 28 c-5 16 -11 29 -13 29 -1 0 -50 -22 -108 -50
-58 -27 -110 -50 -114 -50 -4 0 -27 41 -50 91 l-42 91 97 45 c53 25 98 47 100
49 3 2 -15 41 -23 52 -1 1 -46 -19 -99 -44 -54 -25 -99 -44 -100 -42 -6 6 -44
83 -60 121 l-16 38 105 50 c58 28 105 53 105 55 0 15 -22 44 -33 43 -7 0 -68
-27 -136 -60z"/>
<path d="M11813 15747 c-73 -134 -133 -246 -133 -249 0 -7 60 -32 64 -27 2 2
20 36 41 74 21 39 47 85 57 102 l19 33 39 -20 c47 -24 80 -65 80 -99 0 -14 -9
-60 -20 -101 -26 -98 -25 -102 10 -122 l30 -17 9 37 c45 171 47 196 26 245 -6
14 -2 17 19 17 67 0 139 60 152 125 14 78 -40 146 -166 210 -38 19 -75 35 -82
35 -7 0 -73 -110 -145 -243z m260 127 c48 -32 71 -81 56 -121 -34 -90 -115
-103 -217 -37 l-23 15 48 90 c54 101 59 103 136 53z"/>
<path d="M5485 15720 c-93 -60 -171 -113 -173 -119 -2 -6 3 -19 10 -30 14 -19
16 -18 87 26 39 25 74 44 76 42 1 -2 60 -94 130 -204 70 -110 131 -204 135
-208 4 -5 22 -1 40 8 29 15 31 18 17 38 -81 124 -249 389 -253 400 -3 10 18
29 65 58 39 24 71 47 71 50 0 4 -8 16 -17 27 -18 20 -19 20 -188 -88z"/>
<path d="M12613 15491 c-84 -22 -176 -103 -219 -195 -31 -66 -33 -169 -5 -225
24 -46 88 -105 137 -126 58 -24 151 -20 211 10 132 66 218 235 183 360 -15 54
-77 128 -130 155 -44 23 -131 33 -177 21z m175 -90 c122 -86 65 -303 -101
-385 -60 -31 -97 -32 -153 -7 -116 53 -125 207 -19 328 61 69 114 95 186 91
37 -3 66 -11 87 -27z"/>
<path d="M4913 15315 c-121 -82 -139 -219 -37 -286 38 -25 105 -24 186 1 34
11 71 20 80 20 51 0 98 -50 98 -104 0 -46 -102 -136 -155 -136 -19 0 -19 -20
-2 -45 18 -23 48 -16 113 27 72 49 109 107 109 173 0 60 -20 95 -75 133 -41
28 -94 28 -178 2 -77 -24 -110 -25 -140 -4 -69 48 -32 146 70 189 33 13 36 18
29 37 -12 34 -40 32 -98 -7z"/>
<path d="M8854 14978 c3 -89 8 -164 11 -166 2 -2 43 -1 90 3 63 5 85 10 85 21
0 11 -16 14 -69 14 l-69 0 -4 56 c-1 31 -1 58 1 60 2 2 31 4 63 4 44 0 58 3
58 15 0 10 -16 15 -62 17 l-63 3 -3 53 -3 52 70 0 c56 0 71 3 71 15 0 12 -17
15 -92 15 l-91 0 7 -162z"/>
<path d="M8550 15123 c-57 -22 -109 -95 -110 -153 0 -88 57 -164 131 -175 54
-8 129 9 129 30 0 11 -13 13 -62 9 -74 -6 -103 6 -131 53 -23 40 -24 110 -3
151 19 37 91 68 136 59 25 -6 30 -3 30 13 0 18 -7 20 -52 19 -29 0 -60 -3 -68
-6z"/>
<path d="M9418 15109 c-9 -5 -15 -15 -12 -23 4 -10 13 -11 43 -3 70 19 112
-32 80 -96 -6 -12 -45 -54 -87 -94 -42 -39 -74 -75 -70 -78 13 -14 201 -11
205 3 3 8 -8 12 -35 12 -22 0 -54 3 -71 6 l-32 7 56 49 c64 58 85 93 85 143 0
54 -36 85 -97 85 -26 0 -56 -5 -65 -11z"/>
<path d="M8220 15062 c0 -9 9 -64 20 -122 11 -58 20 -109 20 -113 0 -5 -15 9
-33 31 -79 94 -171 192 -181 192 -33 -1 -34 -16 -7 -170 22 -125 30 -156 44
-158 22 -4 22 9 -3 144 -11 60 -20 113 -20 117 0 4 23 -20 51 -54 106 -127
163 -181 182 -173 13 4 17 14 14 28 -3 11 -16 83 -28 159 -20 116 -26 137 -41
137 -10 0 -18 -7 -18 -18z"/>
<path d="M9791 15064 c-75 -53 -83 -255 -12 -294 31 -16 76 -12 103 10 73 57
82 267 13 294 -30 11 -80 6 -104 -10z m94 -34 c32 -35 18 -176 -23 -222 -21
-25 -58 -22 -76 4 -10 13 -16 43 -16 73 0 127 61 205 115 145z"/>
<path d="M10173 15019 c-23 -7 -33 -16 -33 -29 0 -17 3 -18 26 -9 15 5 28 8
29 7 1 -2 -9 -61 -23 -131 -18 -95 -22 -131 -13 -140 7 -7 14 -7 20 -1 12 13
63 283 57 300 -6 16 -17 16 -63 3z"/>
<path d="M7803 15002 c-8 -5 -2 -48 24 -157 20 -83 39 -154 43 -158 3 -4 13
-5 22 -2 13 5 10 28 -22 162 -20 86 -41 158 -46 160 -5 1 -14 -1 -21 -5z"/>
<path d="M13129 14779 c-109 -105 -199 -195 -199 -200 0 -5 33 -41 73 -82 82
-83 142 -114 204 -104 94 16 145 101 120 199 -7 26 -7 26 29 17 46 -13 96 3
129 42 31 38 34 103 6 157 -17 34 -140 162 -156 162 -3 0 -96 -86 -206 -191z
m263 64 c68 -70 70 -136 5 -169 -45 -24 -86 -11 -137 42 l-45 45 65 59 c36 33
67 59 70 60 3 0 22 -17 42 -37z m-150 -202 c37 -59 37 -101 -1 -143 -25 -28
-36 -33 -73 -33 -48 0 -103 33 -135 81 -15 24 -15 25 63 98 90 84 90 84 146
-3z"/>
<path d="M7546 14940 c-71 -22 -102 -104 -56 -150 19 -19 31 -23 103 -35 48
-8 75 -44 59 -79 -12 -26 -72 -51 -103 -43 -14 4 -19 0 -19 -15 0 -19 5 -20
51 -16 146 14 163 173 20 194 -67 10 -88 20 -94 44 -9 33 33 70 78 70 29 0 36
3 33 18 -4 20 -31 24 -72 12z"/>
<path d="M10523 14939 c-44 -13 -46 -44 -3 -35 17 3 30 4 30 3 0 -2 -15 -62
-34 -134 -33 -127 -33 -131 -14 -136 10 -3 21 0 23 6 2 7 20 75 40 151 42 162
40 169 -42 145z"/>
<path d="M4457 14882 l-28 -29 35 -94 c18 -52 43 -117 54 -145 l20 -51 -136
39 c-75 21 -144 38 -153 38 -14 0 -59 -39 -59 -52 0 -3 81 -25 179 -48 l179
-43 86 -79 c48 -43 90 -78 95 -78 4 0 17 11 29 23 l22 24 -90 82 -90 82 -50
162 c-69 221 -60 204 -93 169z"/>
<path d="M13752 14300 c-109 -23 -229 -127 -258 -227 -20 -69 -13 -122 27
-191 71 -125 203 -163 344 -98 119 54 195 158 195 266 0 74 -16 114 -67 170
-60 68 -151 98 -241 80z m123 -71 c76 -21 136 -115 119 -186 -17 -72 -81 -150
-151 -186 -49 -26 -114 -39 -155 -32 -50 9 -112 63 -128 111 -35 104 56 238
192 285 63 22 71 22 123 8z"/>
<path d="M3885 14207 c-53 -55 -75 -103 -75 -162 0 -59 28 -107 74 -129 51
-24 97 -20 157 14 142 79 167 83 215 35 50 -50 24 -135 -63 -201 -39 -30 -41
-33 -27 -53 8 -11 22 -21 30 -21 22 0 106 88 129 135 27 55 27 135 -1 172 -65
88 -145 95 -264 23 -89 -54 -131 -58 -166 -16 -42 48 -23 114 49 172 33 26 34
29 20 51 -8 13 -20 23 -26 23 -6 0 -29 -19 -52 -43z"/>
<path d="M9247 14163 c-4 -3 -7 -496 -7 -1095 l0 -1088 -130 0 -130 0 0 -50 0
-50 180 0 180 0 0 1145 0 1145 -43 0 c-24 0 -47 -3 -50 -7z"/>
<path d="M9930 12450 l0 -1580 -480 0 -480 0 0 -50 0 -50 1110 0 1110 0 0 720
0 720 720 0 720 0 0 50 0 50 -770 0 -770 0 0 -720 0 -720 -530 0 -530 0 0
1110 0 1110 865 0 865 0 0 50 0 50 -865 0 -865 0 0 420 0 420 -50 0 -50 0 0
-1580z"/>
<path d="M14307 13674 l-27 -15 41 -75 c23 -41 40 -76 38 -78 -2 -2 -104 -56
-226 -121 l-221 -119 14 -28 c8 -15 20 -28 26 -28 6 0 108 52 226 115 118 63
216 115 218 115 2 0 18 -28 35 -62 43 -86 47 -90 73 -76 11 6 23 12 25 14 3 2
-90 181 -166 321 -28 51 -29 51 -56 37z"/>
<path d="M3378 13136 c-59 -16 -112 -56 -149 -114 -35 -55 -91 -198 -87 -220
2 -10 93 -54 257 -124 140 -59 256 -107 257 -105 2 2 19 36 37 77 69 152 74
261 18 349 -68 105 -218 167 -333 137z m145 -86 c154 -58 203 -183 133 -336
l-25 -55 -33 14 c-18 8 -111 47 -205 87 -193 82 -189 78 -152 160 30 67 67
110 113 131 53 24 102 24 169 -1z"/>
<path d="M14430 12859 c-135 -55 -249 -104 -253 -108 -5 -5 -2 -22 5 -38 l13
-31 255 105 c140 58 259 108 263 112 10 10 -13 61 -27 61 -6 0 -121 -46 -256
-101z"/>
<path d="M6254 12929 c-211 -19 -434 -84 -659 -193 -645 -313 -1198 -1031
-1339 -1737 -89 -445 -97 -877 -21 -1137 80 -276 175 -520 305 -787 140 -287
246 -451 436 -679 363 -435 781 -687 1304 -788 l116 -22 44 -65 c142 -209 376
-457 535 -569 171 -121 306 -171 605 -226 381 -70 605 -77 1182 -39 l98 6 0
-431 0 -432 -1575 0 -1575 0 0 -50 0 -50 1575 0 1575 0 0 -170 0 -170 -967 -2
-968 -3 0 -320 0 -320 50 0 50 0 3 268 2 267 445 0 445 0 0 -515 0 -515 50 0
50 0 0 515 0 515 420 0 420 0 0 -810 0 -810 50 0 50 0 0 810 0 810 375 0 375
0 0 -515 0 -515 55 0 55 0 0 515 0 515 430 0 430 0 2 -267 3 -268 50 0 50 0 0
320 0 320 -912 3 -913 2 0 170 0 170 1545 0 1545 0 0 50 0 50 -1545 0 -1544 0
-1 1275 0 1275 140 0 140 0 2 -812 3 -813 48 -3 47 -3 0 815 0 816 295 0 295
0 2 -812 3 -813 48 -3 47 -3 0 365 0 366 908 2 907 3 3 48 3 47 -910 0 -911 0
0 400 0 400 1355 0 1355 0 0 50 0 50 -1355 0 -1355 0 0 295 0 295 1520 0 1520
0 0 55 0 55 -1567 -2 -1568 -3 -3 -347 -2 -348 -295 0 -295 0 0 550 0 550
2145 0 2145 0 0 380 0 380 -870 0 -870 0 0 550 0 550 620 0 620 0 0 50 0 50
-670 0 -670 0 0 -600 0 -600 -1415 0 -1415 0 0 -50 0 -50 2285 0 2285 0 0
-280 0 -280 -2145 0 -2145 0 0 -600 0 -600 -140 0 -140 0 0 833 0 832 -25 119
c-101 484 -292 989 -522 1379 -289 491 -652 832 -1138 1072 -247 122 -489 193
-735 215 -128 11 -154 11 -286 -1z"/>
<path d="M14569 12425 c-76 -24 -140 -75 -172 -136 -26 -49 -28 -62 -25 -134
3 -65 9 -93 35 -147 18 -38 36 -68 40 -68 4 0 16 7 27 15 17 13 17 16 -8 67
-75 154 -23 281 134 329 170 51 299 -44 302 -222 0 -39 1 -40 32 -37 l31 3 -3
55 c-7 111 -63 206 -149 257 -57 33 -171 41 -244 18z"/>
<path d="M2936 12225 c-21 -80 -37 -147 -35 -150 2 -2 121 -36 264 -75 143
-39 265 -72 271 -74 13 -5 97 295 86 305 -4 4 -17 10 -28 13 -20 6 -24 -2 -54
-114 -27 -97 -36 -119 -49 -116 -9 3 -53 15 -98 27 -46 12 -83 25 -83 29 0 4
13 52 28 108 29 100 29 101 8 106 -12 3 -26 6 -31 6 -6 0 -22 -43 -35 -95 -13
-53 -27 -100 -30 -105 -6 -9 -149 26 -164 40 -5 5 3 53 19 115 16 58 26 107
24 109 -2 3 -15 7 -29 11 -25 6 -26 3 -64 -140z"/>
<path d="M14870 11648 c-39 -26 -72 -85 -95 -172 -20 -71 -51 -106 -97 -106
-66 0 -108 54 -108 139 0 27 4 61 9 74 9 22 7 25 -21 31 -17 3 -34 3 -37 0 -3
-3 -8 -41 -10 -85 -3 -70 0 -86 23 -134 34 -69 74 -95 146 -95 92 0 134 40
165 160 23 87 39 115 75 130 24 10 36 10 60 0 45 -19 63 -61 58 -136 -4 -60
-3 -63 22 -67 13 -3 28 -3 32 0 5 2 8 36 8 75 0 123 -53 197 -149 205 -36 4
-53 0 -81 -19z"/>
<path d="M2915 11601 c-104 -48 -165 -179 -165 -357 0 -48 2 -52 28 -57 86
-16 522 -70 528 -65 3 4 12 48 20 99 31 207 -33 338 -188 384 -71 21 -173 19
-223 -4z m241 -85 c93 -43 136 -134 118 -252 -9 -56 -10 -59 -39 -61 -16 -2
-118 10 -225 25 l-195 27 2 64 c3 112 57 192 151 222 41 13 131 1 188 -25z"/>
<path d="M2900 10751 c-49 -15 -89 -41 -122 -81 -56 -64 -75 -154 -63 -294 l7
-86 222 0 c123 0 251 3 286 7 l62 6 -4 121 c-4 98 -9 131 -28 174 -29 67 -96
127 -163 147 -53 16 -154 19 -197 6z m220 -99 c45 -23 59 -36 82 -81 23 -44
28 -66 28 -126 l0 -73 -162 -7 c-90 -4 -192 -5 -228 -3 l-65 3 -3 67 c-2 37 2
85 8 107 35 131 194 184 340 113z"/>
<path d="M14722 10464 c-97 -48 -142 -131 -142 -263 0 -105 6 -123 39 -119 26
3 26 3 23 79 -2 42 2 94 9 117 17 59 68 108 131 127 65 19 101 19 166 0 101
-30 152 -100 152 -208 0 -35 -5 -78 -11 -96 -13 -37 -13 -37 23 -46 24 -6 27
-4 37 32 6 21 11 74 11 119 0 66 -4 89 -26 132 -52 104 -140 152 -279 152 -67
0 -90 -4 -133 -26z"/>
<path d="M3264 9925 c-4 -9 1 -64 9 -122 9 -59 14 -109 11 -112 -4 -4 -166
-30 -190 -31 -7 0 -17 39 -24 99 -7 55 -16 104 -19 109 -3 6 -18 8 -32 5 l-26
-5 14 -86 c7 -48 13 -97 13 -108 0 -25 -14 -30 -111 -40 l-66 -6 -12 93 c-19
139 -17 136 -52 131 -25 -4 -30 -8 -26 -26 3 -11 13 -81 23 -154 15 -110 21
-131 33 -128 9 3 135 21 281 42 146 21 266 38 267 39 2 1 -7 72 -19 158 -21
151 -23 157 -45 157 -13 0 -26 -7 -29 -15z"/>
<path d="M14526 9703 c-10 -37 -49 -283 -45 -287 2 -2 15 -6 29 -8 24 -3 25 0
45 109 11 61 23 115 27 118 3 4 115 -12 248 -36 205 -36 243 -40 251 -28 11
17 12 59 2 59 -5 0 -123 20 -263 45 -140 25 -263 45 -272 45 -9 0 -19 -8 -22
-17z"/>
<path d="M3243 9210 c-33 -20 -55 -54 -67 -102 l-6 -28 -21 21 c-86 86 -219
23 -219 -106 0 -78 42 -215 65 -215 17 0 527 139 533 145 3 2 -3 37 -13 77
-22 95 -69 183 -110 208 -43 26 -119 27 -162 0z m157 -85 c28 -27 67 -133 53
-145 -13 -11 -202 -59 -207 -52 -2 4 -10 34 -16 67 -11 51 -10 65 3 98 29 68
113 84 167 32z m-281 -70 c31 -15 55 -59 66 -115 l6 -35 -68 -18 c-37 -10 -77
-20 -89 -23 -18 -5 -23 1 -34 41 -23 81 -11 137 33 155 32 13 55 12 86 -5z"/>
<path d="M14463 9049 c-70 -21 -133 -120 -133 -209 0 -20 10 -56 23 -80 37
-74 82 -99 291 -164 103 -32 189 -56 190 -55 2 2 8 18 14 35 l10 31 -171 53
c-190 58 -219 70 -259 108 -52 48 -45 137 13 187 48 40 106 34 315 -30 98 -30
179 -54 179 -52 1 1 7 17 13 34 l11 33 -132 40 c-73 23 -152 48 -177 55 -62
20 -148 26 -187 14z"/>
<path d="M3400 8444 c-135 -69 -248 -129 -252 -133 -5 -4 -1 -25 8 -48 l16
-41 52 4 c28 2 123 9 211 14 88 6 176 13 195 16 l35 5 -55 -48 c-30 -26 -112
-101 -182 -166 l-127 -118 20 -42 c10 -23 22 -41 26 -40 13 3 528 186 531 188
2 2 -4 17 -12 34 l-16 30 -93 -34 c-109 -40 -231 -85 -307 -114 l-55 -21 30
26 c158 138 345 311 345 320 0 5 -6 18 -13 27 -12 17 -26 17 -242 2 -127 -8
-243 -18 -260 -21 -16 -3 70 44 193 106 122 61 222 116 222 123 -1 7 -6 22
-13 34 -12 22 -16 20 -257 -103z"/>
<path d="M14100 8255 c-75 -153 -62 -258 35 -305 62 -30 114 -23 163 22 l22
21 0 -22 c0 -40 28 -90 62 -111 57 -35 124 -22 175 32 25 27 80 140 89 183 l6
31 -248 114 c-136 63 -251 116 -255 118 -4 2 -27 -35 -49 -83z m164 -50 l96
-45 -15 -36 c-45 -109 -117 -145 -191 -97 -31 20 -48 66 -39 110 6 33 40 113
49 113 2 0 47 -20 100 -45z m251 -117 c33 -17 61 -31 63 -33 9 -8 -41 -96 -68
-118 -40 -34 -70 -34 -109 -1 -26 21 -31 33 -31 67 0 23 9 61 20 85 23 50 24
50 125 0z"/>
<path d="M4010 7722 l-24 -19 64 -103 c73 -117 77 -99 -42 -171 -38 -23 -70
-40 -72 -38 -2 2 -27 42 -56 89 -29 47 -54 86 -55 88 -3 3 -43 -15 -53 -23 -1
-1 22 -42 53 -91 30 -48 55 -91 55 -96 0 -4 -24 -23 -53 -41 -103 -66 -88 -70
-157 43 l-62 99 -24 -16 c-14 -9 -23 -19 -22 -23 10 -26 154 -250 160 -250 8
0 456 276 472 290 5 5 -23 61 -64 127 -105 170 -93 157 -120 135z"/>
<path d="M11880 3621 l0 -1541 50 0 50 0 0 690 0 690 218 -6 c119 -3 350 -9
512 -13 l295 -6 340 -677 340 -678 52 0 51 0 -334 675 c-184 371 -334 677
-334 680 0 3 13 5 30 5 86 0 238 48 320 101 211 136 310 383 310 774 0 409
-107 648 -342 763 -154 75 -150 75 -895 79 l-663 4 0 -1540z m1347 1424 c211
-40 351 -173 412 -393 28 -102 44 -294 36 -432 -23 -393 -149 -596 -417 -667
-55 -14 -143 -17 -670 -20 l-608 -4 0 765 0 766 584 0 c475 0 599 -3 663 -15z"/>
<path d="M4615 5054 c-99 -22 -183 -65 -241 -123 -63 -63 -99 -128 -124 -227
-19 -75 -20 -114 -20 -1194 0 -1080 1 -1119 20 -1194 11 -43 32 -100 47 -128
56 -103 171 -175 320 -198 81 -13 376 -13 898 0 209 5 406 10 438 10 l57 0 0
34 0 35 -672 4 c-599 3 -680 5 -738 21 -128 34 -204 102 -242 216 -22 63 -22
81 -26 613 l-3 547 313 0 c172 0 512 3 756 7 l442 6 0 32 0 32 -257 6 c-141 4
-481 7 -755 7 l-499 0 4 543 c4 587 4 595 61 691 34 58 86 103 166 140 l65 31
693 3 692 3 0 34 c0 31 -3 35 -32 39 -18 3 -202 8 -408 11 -206 3 -490 7 -630
10 -209 4 -268 2 -325 -11z"/>
<path d="M8682 3093 l-263 -3 3 -308 c3 -287 4 -310 24 -353 30 -65 81 -119
139 -145 44 -21 65 -24 178 -24 l127 0 0 -63 c0 -57 -3 -65 -24 -76 -33 -18
-66 -81 -66 -126 0 -148 176 -207 257 -86 43 63 22 176 -39 210 -26 15 -28 20
-28 79 l0 62 128 0 c112 0 133 3 177 24 58 26 109 80 139 145 20 44 21 62 21
356 l0 310 -255 0 c-140 0 -373 -1 -518 -2z m676 -350 c-3 -243 -3 -249 -28
-293 -15 -27 -41 -53 -65 -67 -39 -22 -48 -23 -323 -23 -325 0 -335 2 -383 79
l-29 45 0 253 0 253 416 0 415 0 -3 -247z m-385 -724 c13 -21 1 -65 -19 -73
-22 -8 -54 21 -54 49 0 43 51 60 73 24z"/>
<path d="M9704 1489 c-58 -10 -84 -46 -84 -117 0 -35 6 -66 15 -79 18 -26 72
-43 137 -43 62 0 78 -17 78 -85 0 -75 -16 -85 -137 -85 -76 0 -93 -3 -93 -15
0 -12 17 -15 95 -15 111 0 147 13 164 61 23 67 6 141 -40 164 -15 8 -54 15
-87 15 -79 0 -97 14 -97 78 0 79 18 92 127 92 67 0 89 3 86 13 -5 14 -109 25
-164 16z"/>
<path d="M5650 1270 c0 -187 2 -220 15 -220 12 0 15 30 17 188 l3 187 120
-187 c80 -125 126 -188 138 -188 16 0 17 17 17 220 0 213 -1 220 -20 220 -19
0 -20 -8 -22 -185 l-3 -184 -118 184 c-66 102 -125 185 -133 185 -12 0 -14
-38 -14 -220z"/>
<path d="M6170 1270 c0 -189 2 -220 15 -220 13 0 15 31 15 220 0 189 -2 220
-15 220 -13 0 -15 -31 -15 -220z"/>
<path d="M6380 1475 c0 -12 14 -15 70 -15 l70 0 0 -205 c0 -198 1 -205 20
-205 19 0 20 7 20 205 l0 205 70 0 c56 0 70 3 70 15 0 13 -24 15 -160 15 -136
0 -160 -2 -160 -15z"/>
<path d="M7160 1270 c0 -189 2 -220 15 -220 12 0 15 18 15 101 l0 100 47 -3
46 -3 61 -97 c39 -63 67 -98 79 -98 9 0 17 2 17 5 0 2 -29 50 -65 107 -36 56
-65 105 -65 110 0 4 24 45 53 90 78 121 81 128 60 128 -12 0 -40 -35 -81 -100
l-64 -100 -44 0 -44 0 0 100 c0 82 -3 100 -15 100 -13 0 -15 -31 -15 -220z"/>
<path d="M7622 1308 c3 -201 7 -216 64 -243 42 -20 156 -20 194 0 53 28 60 55
60 250 0 168 -1 175 -20 175 -19 0 -20 -7 -20 -174 0 -96 -3 -182 -6 -191 -15
-39 -135 -61 -187 -33 -44 23 -46 35 -47 221 0 172 -1 177 -21 177 -20 0 -21
-3 -17 -182z"/>
<path d="M8150 1270 c0 -189 2 -220 15 -220 12 0 15 17 15 95 l0 95 49 0 c27
0 57 -3 66 -6 9 -4 36 -46 61 -95 26 -52 50 -89 59 -89 20 0 20 0 -25 90 -22
44 -40 84 -40 89 0 5 9 13 21 16 76 24 78 207 3 235 -14 6 -70 10 -125 10
l-99 0 0 -220z m220 170 c15 -15 20 -33 20 -77 0 -84 -12 -93 -122 -93 l-88 0
0 95 0 95 85 0 c72 0 88 -3 105 -20z"/>
<path d="M8622 1308 c3 -201 7 -216 64 -243 42 -20 156 -20 194 0 53 28 60 55
60 250 0 168 -1 175 -20 175 -19 0 -20 -7 -20 -174 0 -96 -3 -182 -6 -191 -15
-39 -135 -61 -187 -33 -44 23 -46 35 -47 221 0 172 -1 177 -21 177 -20 0 -21
-3 -17 -182z"/>
<path d="M9160 1270 c0 -189 2 -220 15 -220 12 0 15 18 15 101 l0 100 47 -3
46 -3 61 -97 c39 -63 67 -98 79 -98 9 0 17 2 17 5 0 2 -29 50 -65 107 -36 56
-65 105 -65 110 0 4 24 45 53 90 78 121 81 128 60 128 -12 0 -40 -35 -81 -100
l-64 -100 -44 0 -44 0 0 100 c0 82 -3 100 -15 100 -13 0 -15 -31 -15 -220z"/>
<path d="M10100 1270 c0 -189 2 -220 15 -220 12 0 15 18 15 100 l0 100 120 0
120 0 0 -100 c0 -93 1 -100 20 -100 19 0 20 7 20 220 0 213 -1 220 -20 220
-19 0 -20 -7 -20 -105 l0 -105 -120 0 -120 0 0 105 c0 87 -3 105 -15 105 -13
0 -15 -31 -15 -220z"/>
<path d="M10646 1469 l-26 -20 0 -180 c0 -228 -6 -219 150 -219 91 0 110 3
110 15 0 12 -18 15 -99 15 -121 0 -131 8 -131 107 l0 62 102 3 c70 2 103 7
106 16 3 9 -13 12 -56 12 -32 0 -81 3 -107 7 l-47 6 4 70 c5 91 13 97 135 97
76 0 93 3 93 15 0 12 -18 15 -104 15 -89 0 -107 -3 -130 -21z"/>
<path d="M11050 1475 c0 -12 14 -15 70 -15 l70 0 0 -205 c0 -198 1 -205 20
-205 19 0 20 7 20 205 l0 205 70 0 c56 0 70 3 70 15 0 13 -24 15 -160 15 -136
0 -160 -2 -160 -15z"/>
<path d="M11550 1270 c0 -189 2 -220 15 -220 12 0 15 17 15 95 l0 95 49 0 c27
0 57 -3 66 -6 9 -4 36 -46 61 -95 26 -52 50 -89 59 -89 20 0 20 0 -25 90 -22
44 -40 84 -40 89 0 5 9 13 21 16 76 24 78 207 3 235 -14 6 -70 10 -125 10
l-99 0 0 -220z m220 170 c15 -15 20 -33 20 -77 0 -84 -12 -93 -122 -93 l-88 0
0 95 0 95 85 0 c72 0 88 -3 105 -20z"/>
<path d="M12155 1478 c-3 -7 -38 -107 -79 -221 -67 -189 -72 -208 -53 -205 15
2 26 19 42 68 l22 65 94 0 94 0 24 -67 c17 -51 28 -68 42 -68 16 0 12 18 -38
158 -30 86 -65 185 -76 220 -18 52 -25 62 -44 62 -13 0 -26 -6 -28 -12z m101
-240 c5 -16 -2 -18 -75 -18 -45 0 -81 2 -81 4 0 5 57 167 72 205 10 24 13 19
44 -74 19 -54 36 -107 40 -117z"/>
</g>
</svg>
